<svg xmlns="http://www.w3.org/2000/svg" width="800" height="400" viewBox="0 0 800 400" preserveAspectRatio="none">
            <!-- https://grabient.com/HQBgrAzANKAsAcMT0cAjLAnDNYDsOsATDEUSKWicGWlBMHmtA3kS8AGyYRA?style=linearSwatches -->
            <defs>
              <clipPath id="bounds">
                <rect x="0" y="0" width="800" height="400" />
              </clipPath>
            </defs>
            <g clip-path="url(#bounds)"><path d="M 0.000,647.214 L 0.000,-247.214 L 61.538,-247.214 L 61.538,647.214 Z" fill="#05050a" fill-opacity="1.000" /><path d="M 61.538,647.214 L 61.538,-247.214 L 123.077,-247.214 L 123.077,647.214 Z" fill="#090a0e" fill-opacity="1.000" /><path d="M 123.077,647.214 L 123.077,-247.214 L 184.615,-247.214 L 184.615,647.214 Z" fill="#0d0e12" fill-opacity="1.000" /><path d="M 184.615,647.214 L 184.615,-247.214 L 246.154,-247.214 L 246.154,647.214 Z" fill="#121316" fill-opacity="1.000" /><path d="M 246.154,647.214 L 246.154,-247.214 L 307.692,-247.214 L 307.692,647.214 Z" fill="#16171a" fill-opacity="1.000" /><path d="M 307.692,647.214 L 307.692,-247.214 L 369.231,-247.214 L 369.231,647.214 Z" fill="#1a1b1e" fill-opacity="1.000" /><path d="M 369.231,647.214 L 369.231,-247.214 L 430.769,-247.214 L 430.769,647.214 Z" fill="#1e1f22" fill-opacity="1.000" /><path d="M 430.769,647.214 L 430.769,-247.214 L 492.308,-247.214 L 492.308,647.214 Z" fill="#222326" fill-opacity="1.000" /><path d="M 492.308,647.214 L 492.308,-247.214 L 553.846,-247.214 L 553.846,647.214 Z" fill="#26272a" fill-opacity="1.000" /><path d="M 553.846,647.214 L 553.846,-247.214 L 615.385,-247.214 L 615.385,647.214 Z" fill="#292a2d" fill-opacity="1.000" /><path d="M 615.385,647.214 L 615.385,-247.214 L 676.923,-247.214 L 676.923,647.214 Z" fill="#2c2d30" fill-opacity="1.000" /><path d="M 676.923,647.214 L 676.923,-247.214 L 738.462,-247.214 L 738.462,647.214 Z" fill="#2e2f33" fill-opacity="1.000" /><path d="M 738.462,647.214 L 738.462,-247.214 L 800.000,-247.214 L 800.000,647.214 Z" fill="#303135" fill-opacity="1.000" /></g>
          </svg>